# xmcd
#
# Track frame offsets:
#  183
#  11090
#  21910
#  32868
#  43673
#  52590
#  69175
#  79593
#  90523
#  100200
#  111963
#  123435
#  134520
#  146275
#  156123
#  166803
#  176485
#  187758
#  202550
#  216568
#  228593
#  238930
#  249445
#  261445
#  274040
#  287403
#  296663
#  309960
#
# Disc length: 4275 seconds
#
# Revision: 2
# Processed by: cddbd v1.5.2PL0 Copyright (c) Steve Scherf et al.
# Submitted via: AltoMP3_Maker 3.0
#
DISCID=7f10b11c
DTITLE=Shadows - Dance with the Shadows - Sound of the Shadows
DYEAR=1900
DGENRE=
TTITLE0=Chattanooga choo-choo
TTITLE1=Blue shadows
TTITLE2=Fandango
TTITLE3=Tonight (from west side story)
TTITLE4=That's the way it goes
TTITLE5=Big "B"
TTITLE6=In the mood
TTITLE7=The lonely bull (el solo toro)
TTITLE8=Dakota
TTITLE9=French dressing
TTITLE10=The high and the mighty
TTITLE11=Don't it make you feel good
TTITLE12=Zambesi
TTITLE13=Temptation
TTITLE14=Brazil
TTITLE15=The lost city
TTITLE16=A little bitty tear
TTITLE17=Blue sky blue sea blue me
TTITLE18=Bossa roo
TTITLE19=Five hundred miles
TTITLE20=Cotton pickin'
TTITLE21=Deep purple
TTITLE22=Santa Ana
TTITLE23=The windjammer
TTITLE24=Dean's theme
TTITLE25=Breakthru
TTITLE26=Let it be me
TTITLE27=National provincial samba
EXTD=
EXTT0=
EXTT1=
EXTT2=
EXTT3=
EXTT4=
EXTT5=
EXTT6=
EXTT7=
EXTT8=
EXTT9=
EXTT10=
EXTT11=
EXTT12=
EXTT13=
EXTT14=
EXTT15=
EXTT16=
EXTT17=
EXTT18=
EXTT19=
EXTT20=
EXTT21=
EXTT22=
EXTT23=
EXTT24=
EXTT25=
EXTT26=
EXTT27=
PLAYORDER=
